# File created by Blade
# Date/Time:  Mon Sep 22 17:23:16 2014
# Frame Rate: 120.000 fps
#------------------------------------------------------
:FULLY-SPECIFIED
:DEGREES
1894
root 2.813653 37.847639 0.441037 -17.164993 -4.176236 -15.483726
RightUpLeg -56.200502 -13.733015 -28.565041
RightLeg 98.669897 -0.000000 -0.000000
RightFoot 11.552624 -23.912131 11.098190
RightToeBase 4.169981 -0.000000 -0.000000
LeftUpLeg 18.706902 -13.334396 3.130282
LeftLeg 16.573400 -0.000000 -0.000000
LeftFoot -17.616922 13.038257 -9.962243
LeftToeBase -0.611571 -0.000000 0.000000
Spine 21.508452 -1.844028 12.995285
RightShoulder 8.751910 -25.795742 -11.619640
RightArm 39.784025 -34.220918 43.211906
RightForeArm -180.974220 0.000000 102.227874
RightHand 98.518951 -0.000000 -169.770821
RightHandThumb1 -24.326973 -0.000000 -32.862282
LeftShoulder -15.469237 28.572764 4.568292
LeftArm 77.587663 -5.233517 -53.131907
LeftForeArm 57.195885 0.000000 83.681111
LeftHand -25.736252 0.000000 -13.939783
LeftHandThumb1 -26.253704 0.000000 33.147579
Head 5.391493 -1.083719 11.511078
1895
root 2.822403 37.821177 0.437026 -17.306420 -4.344779 -15.279970
RightUpLeg -56.582676 -14.011376 -28.138433
RightLeg 98.831810 -0.000000 -0.000000
RightFoot 11.416794 -23.948486 11.172249
RightToeBase 4.221068 -0.000000 -0.000000
LeftUpLeg 18.836011 -13.211318 2.857635
LeftLeg 16.667157 -0.000000 -0.000000
LeftFoot -17.732971 13.257708 -9.786783
LeftToeBase -0.593312 -0.000000 0.000000
Spine 21.747793 -1.871818 12.806271
RightShoulder 8.724813 -25.686289 -11.617910
RightArm 39.586913 -34.294751 43.348204
RightForeArm -181.012943 -0.000000 102.262582
RightHand 98.544410 -0.000000 -169.675081
RightHandThumb1 -24.326973 -0.000000 -32.862282
LeftShoulder -15.447889 28.653853 4.572422
LeftArm 77.563481 -5.405978 -53.312600
LeftForeArm 57.105823 -0.000000 83.808714
LeftHand -25.765621 -0.000000 -13.917685
LeftHandThumb1 -26.253704 0.000000 33.147579
Head 5.402701 -0.854440 11.407371
1896
root 2.834139 37.797091 0.444246 -17.459525 -4.470799 -15.094833
RightUpLeg -56.888274 -14.353761 -27.686824
RightLeg 98.990314 -0.000000 -0.000000
RightFoot 11.124285 -23.907304 11.251342
RightToeBase 4.262935 -0.000000 -0.000000
LeftUpLeg 19.008646 -13.151104 2.562018
LeftLeg 16.719786 -0.000000 -0.000000
LeftFoot -17.826377 13.503140 -9.665597
LeftToeBase -0.632872 -0.000000 0.000000
Spine 21.958955 -1.967414 12.641176
RightShoulder 8.681393 -25.728178 -11.631073
RightArm 39.490149 -34.252798 43.452268
RightForeArm -180.866994 -0.000000 102.273809
RightHand 98.544310 -0.000000 -170.006583
RightHandThumb1 -24.326973 -0.000000 -32.862282
LeftShoulder -15.456528 28.731261 4.526781
LeftArm 77.502546 -5.575259 -53.412999
LeftForeArm 57.116556 -0.000000 83.974901
LeftHand -26.032891 -0.000000 -13.829824
LeftHandThumb1 -26.253704 0.000000 33.147579
Head 5.442408 -0.596266 11.272343
1897
root 2.839346 37.777269 0.438986 -17.587818 -4.639151 -14.944572
RightUpLeg -57.231022 -14.604729 -27.117922
RightLeg 99.100676 -0.000000 -0.000000
RightFoot 10.924521 -23.912138 11.154572
RightToeBase 4.129053 -0.000000 -0.000000
LeftUpLeg 19.112834 -13.009665 2.365755
LeftLeg 16.819422 -0.000000 -0.000000
LeftFoot -17.881453 13.657748 -9.571145
LeftToeBase -0.810023 -0.000000 0.000000
Spine 22.185831 -2.012410 12.513304
RightShoulder 8.652002 -25.871944 -11.634397
RightArm 39.444543 -34.097134 43.520258
RightForeArm -180.907424 -0.000000 102.306165
RightHand 98.557483 -0.000000 -170.208536
RightHandThumb1 -24.326973 -0.000000 -32.862282
LeftShoulder -15.462444 28.784519 4.482175
LeftArm 77.425044 -5.754993 -53.427850
LeftForeArm 57.020382 0.000000 84.150721
LeftHand -26.076063 0.000000 -13.429746
LeftHandThumb1 -26.253704 0.000000 33.147579
Head 5.458958 -0.364187 11.162642
